<svg width="36" height="25" viewBox="0 0 36 25" fill="none" xmlns="http://www.w3.org/2000/svg">
<g clip-path="url(#clip0_326_2998)">
<path opacity="0.5" d="M0 5.47998C0 2.99471 2.01472 0.97998 4.5 0.97998H31.5C33.9854 0.97998 36 2.99471 36 5.47998V20.48C36 22.9653 33.9854 24.98 31.5 24.98H4.5C2.01472 24.98 0 22.9653 0 20.48V5.47998Z" fill="#EDEADA"/>
<path d="M30.75 12.98H5.25C4.83579 12.98 4.5 13.3158 4.5 13.73V15.23C4.5 15.6442 4.83579 15.98 5.25 15.98H30.75C31.1642 15.98 31.5 15.6442 31.5 15.23V13.73C31.5 13.3158 31.1642 12.98 30.75 12.98Z" fill="#57A2AC"/>
<path d="M8.25 5.47998H5.25C4.83579 5.47998 4.5 5.81577 4.5 6.22998V9.22998C4.5 9.64419 4.83579 9.97998 5.25 9.97998H8.25C8.66421 9.97998 9 9.64419 9 9.22998V6.22998C9 5.81577 8.66421 5.47998 8.25 5.47998Z" fill="white"/>
<path d="M23.25 16.73H20.25C18.5931 16.73 17.25 18.0731 17.25 19.73C17.25 21.3868 18.5931 22.73 20.25 22.73H23.25C24.9069 22.73 26.25 21.3868 26.25 19.73C26.25 18.0731 24.9069 16.73 23.25 16.73Z" stroke="#FF3B30"/>
</g>
<defs>
<clipPath id="clip0_326_2998">
<rect width="36" height="24" fill="white" transform="translate(0 0.97998)"/>
</clipPath>
</defs>
</svg>
