<svg width="40" height="41" viewBox="0 0 40 41" fill="none" xmlns="http://www.w3.org/2000/svg">
<rect y="0.78894" width="40" height="40" rx="16" fill="url(#paint0_linear_1137_2301)"/>
<path d="M20 17.7889C19.2044 17.7889 18.4413 18.105 17.8787 18.6676C17.3161 19.2302 17 19.9933 17 20.7889C17 21.5846 17.3161 22.3477 17.8787 22.9103C18.4413 23.4729 19.2044 23.7889 20 23.7889C20.7956 23.7889 21.5587 23.4729 22.1213 22.9103C22.6839 22.3477 23 21.5846 23 20.7889C23 19.9933 22.6839 19.2302 22.1213 18.6676C21.5587 18.105 20.7956 17.7889 20 17.7889ZM20 15.7889C21.3261 15.7889 22.5979 16.3157 23.5355 17.2534C24.4732 18.1911 25 19.4629 25 20.7889C25 22.115 24.4732 23.3868 23.5355 24.3245C22.5979 25.2622 21.3261 25.7889 20 25.7889C18.6739 25.7889 17.4021 25.2622 16.4645 24.3245C15.5268 23.3868 15 22.115 15 20.7889C15 19.4629 15.5268 18.1911 16.4645 17.2534C17.4021 16.3157 18.6739 15.7889 20 15.7889ZM26.5 15.5389C26.5 15.8705 26.3683 16.1884 26.1339 16.4228C25.8995 16.6572 25.5815 16.7889 25.25 16.7889C24.9185 16.7889 24.6005 16.6572 24.3661 16.4228C24.1317 16.1884 24 15.8705 24 15.5389C24 15.2074 24.1317 14.8895 24.3661 14.6551C24.6005 14.4206 24.9185 14.2889 25.25 14.2889C25.5815 14.2889 25.8995 14.4206 26.1339 14.6551C26.3683 14.8895 26.5 15.2074 26.5 15.5389ZM20 12.7889C17.526 12.7889 17.122 12.7959 15.971 12.8469C15.187 12.8839 14.661 12.9889 14.173 13.1789C13.7646 13.3289 13.3954 13.5692 13.093 13.8819C12.78 14.1843 12.5394 14.5535 12.389 14.9619C12.199 15.4519 12.094 15.9769 12.058 16.7599C12.006 17.8639 12 18.2499 12 20.7889C12 23.2629 12.007 23.6669 12.058 24.8179C12.095 25.6009 12.2 26.1279 12.389 26.6149C12.559 27.0499 12.759 27.3629 13.091 27.6949C13.428 28.0309 13.741 28.2319 14.171 28.3979C14.665 28.5889 15.191 28.6949 15.971 28.7309C17.075 28.7829 17.461 28.7889 20 28.7889C22.474 28.7889 22.878 28.7819 24.029 28.7309C24.811 28.6939 25.338 28.5889 25.826 28.3999C26.2338 28.2493 26.6027 28.0094 26.906 27.6979C27.243 27.3609 27.444 27.0479 27.61 26.6179C27.8 26.1249 27.906 25.5979 27.942 24.8179C27.994 23.7139 28 23.3279 28 20.7889C28 18.3149 27.993 17.9109 27.942 16.7599C27.905 15.9779 27.8 15.4499 27.61 14.9619C27.4593 14.5539 27.2191 14.1849 26.907 13.8819C26.6047 13.5688 26.2355 13.3281 25.827 13.1779C25.337 12.9879 24.811 12.8829 24.029 12.8469C22.925 12.7949 22.539 12.7889 20 12.7889ZM20 10.7889C22.717 10.7889 23.056 10.7989 24.122 10.8489C25.187 10.8989 25.912 11.0659 26.55 11.3139C27.21 11.5679 27.766 11.9119 28.322 12.4669C28.8305 12.9668 29.224 13.5715 29.475 14.2389C29.722 14.8759 29.89 15.6019 29.94 16.6669C29.987 17.7329 30 18.0719 30 20.7889C30 23.5059 29.99 23.8449 29.94 24.9109C29.89 25.9759 29.722 26.7009 29.475 27.3389C29.2247 28.0067 28.8311 28.6116 28.322 29.1109C27.822 29.6193 27.2173 30.0127 26.55 30.2639C25.913 30.5109 25.187 30.6789 24.122 30.7289C23.056 30.7759 22.717 30.7889 20 30.7889C17.283 30.7889 16.944 30.7789 15.878 30.7289C14.813 30.6789 14.088 30.5109 13.45 30.2639C12.7823 30.0134 12.1775 29.6199 11.678 29.1109C11.1694 28.6111 10.7759 28.0064 10.525 27.3389C10.277 26.7019 10.11 25.9759 10.06 24.9109C10.013 23.8449 10 23.5059 10 20.7889C10 18.0719 10.01 17.7329 10.06 16.6669C10.11 15.6009 10.277 14.8769 10.525 14.2389C10.7752 13.5711 11.1688 12.9663 11.678 12.4669C12.1777 11.9582 12.7824 11.5647 13.45 11.3139C14.088 11.0659 14.812 10.8989 15.878 10.8489C16.944 10.8019 17.283 10.7889 20 10.7889Z" fill="white"/>
<defs>
<linearGradient id="paint0_linear_1137_2301" x1="4.5" y1="4" x2="37" y2="35.5" gradientUnits="userSpaceOnUse">
<stop stop-color="#810DFD"/>
<stop offset="0.473958" stop-color="#FFCB00"/>
<stop offset="1" stop-color="#FE0A71"/>
</linearGradient>
</defs>
</svg>
