<svg width="24" height="25" viewBox="0 0 24 25" fill="none" xmlns="http://www.w3.org/2000/svg">
<path d="M16.3664 7.39526C14.4764 7.39526 13.6776 8.29714 12.3614 8.29714C11.0118 8.29714 9.98245 7.40183 8.34464 7.40183C6.74151 7.40183 5.03198 8.38058 3.94636 10.0479C2.42198 12.3992 2.68073 16.8275 5.14964 20.6C6.03276 21.9504 7.21214 23.465 8.75901 23.4814H8.78714C10.1315 23.4814 10.5309 22.601 12.381 22.5907H12.4092C14.2317 22.5907 14.5973 23.4762 15.936 23.4762H15.9642C17.511 23.4598 18.7537 21.7817 19.6368 20.4364C20.2724 19.4689 20.5087 18.9832 20.9962 17.8887C17.4248 16.5331 16.851 11.4701 20.3831 9.52901C19.305 8.17901 17.7899 7.39714 16.3617 7.39714L16.3664 7.39526Z" fill="#423B30"/>
<path d="M15.9486 2.47998C14.8236 2.55639 13.5111 3.27264 12.7423 4.20779C12.0448 5.05529 11.4711 6.31248 11.6961 7.5317H11.7861C12.9842 7.5317 14.2105 6.81029 14.9267 5.88592C15.6167 5.00607 16.1398 3.7592 15.9486 2.47998Z" fill="#423B30"/>
</svg>
