<svg width="40" height="41" viewBox="0 0 40 41" fill="none" xmlns="http://www.w3.org/2000/svg">
<rect y="0.78894" width="40" height="40" rx="16" fill="#FFCC01"/>
<path d="M12.9244 28.6143H27.2981C29.0071 28.6143 30 27.6214 30 25.7191V15.8676C30 13.9727 28.9998 12.9797 27.074 12.9797H12.7003C10.9929 12.9797 10 13.9654 10 15.8676V25.7191C10 27.6287 11.0002 28.6143 12.9244 28.6143ZM12.9207 26.9616C12.0902 26.9616 11.6384 26.534 11.6384 25.663V15.9238C11.6384 15.0617 12.0902 14.6325 12.9207 14.6325H27.0777C27.8952 14.6325 28.3617 15.0617 28.3617 15.9311V25.6703C28.3617 26.534 27.8952 26.9616 27.0777 26.9616H12.9207ZM20.0138 23.2218C20.6731 23.2218 21.3035 22.9472 21.9436 22.316L29.1166 15.263L28.0499 14.1857L21.0348 21.1149C20.6626 21.4854 20.3422 21.6467 20.0138 21.6467C19.6781 21.6467 19.3593 21.4781 18.9929 21.1149L11.9486 14.1565L10.8745 15.2321L18.0825 22.316C18.7242 22.9472 19.3472 23.2218 20.0138 23.2218ZM27.9382 27.278L29.0066 26.2008L23.3109 20.5636L22.2409 21.6319L27.9382 27.278ZM11.0138 26.2081L12.0837 27.2853L17.7867 21.6319L16.7111 20.5636L11.0138 26.2081Z" fill="white"/>
</svg>
