<svg width="22" height="24" viewBox="0 0 22 24" fill="none" xmlns="http://www.w3.org/2000/svg">
<path d="M12.5675 23.9422C16.3036 23.9389 18.5438 22.6015 18.5438 20.3649V15.4434C20.1149 14.0712 21.0393 11.8626 21.0393 9.43404C21.0393 3.76438 17.3581 0 11.8515 0C6.37219 0 2.71982 3.69024 2.71982 9.22563C2.71982 9.54463 2.72726 9.80996 2.75118 10.0556L1.44419 12.3969C1.11794 12.9843 0.958984 13.5453 0.958984 14.0684C0.958984 15.0695 1.5901 15.8761 2.71819 16.1051V17.9445C2.71819 19.8106 3.99183 20.7266 5.77079 20.5406L7.51678 20.3527L6.68086 19.6355V20.3649C6.68086 22.6015 8.88163 23.9422 12.5675 23.9422ZM12.5675 22.1928C9.92377 22.1928 8.34382 21.3726 8.34382 20.0651V18.8146C8.34382 18.616 8.21259 18.5078 8.01068 18.525L5.55927 18.7987C4.8533 18.8728 4.46597 18.5647 4.46597 17.8145V14.9314C4.46597 14.7901 4.36085 14.6909 4.20154 14.6909H3.70654C3.12255 14.6909 2.79503 14.4005 2.79503 13.9368C2.79503 13.705 2.87424 13.4286 3.03265 13.1448L4.55733 10.4101C4.48899 10.0015 4.45854 9.60278 4.45854 9.20583C4.45854 4.72572 7.40766 1.74941 11.8515 1.74941C16.3045 1.74941 19.2866 4.81797 19.2866 9.43404C19.2866 11.6808 18.3409 13.6188 16.7895 14.5684L16.7912 20.0651C16.7912 21.3726 15.208 22.1928 12.5675 22.1928Z" fill="#332D17"/>
<path d="M5.86523 7.74365C5.86523 9.48133 7.07146 10.6529 8.85277 10.6529C10.6102 10.6529 11.8074 9.6049 11.8074 8.03457C11.8074 7.38534 11.5824 6.83579 11.1672 6.49304C10.9761 6.33082 10.846 6.27645 10.6656 6.27645C10.3881 6.27645 10.179 6.45842 10.179 6.72359C10.179 7.00942 10.3423 7.09026 10.5546 7.29181C10.726 7.46001 10.825 7.70651 10.825 8.01648C10.825 9.00627 10.0478 9.66151 8.86514 9.66151C7.65363 9.66151 6.85667 8.90078 6.85667 7.74202C6.85667 7.03172 7.2324 6.3823 7.84956 6.0468L7.35058 5.16484C6.4436 5.68394 5.86523 6.68335 5.86523 7.74365ZM7.0865 5.33286C7.0865 6.45498 7.88074 7.21459 9.04656 7.21459C9.30594 7.21459 9.54227 6.98568 9.54227 6.71888C9.54227 6.45045 9.31336 6.22317 9.04656 6.22317C8.45965 6.22317 8.07793 5.87281 8.07793 5.33286C8.07793 4.76736 8.55028 4.35683 9.20479 4.35683C9.57305 4.35683 9.94556 4.49603 10.2504 4.73655L10.831 3.92546C10.3597 3.56386 9.79708 3.36539 9.21221 3.36539C8.00598 3.36539 7.0865 4.20495 7.0865 5.33286ZM9.54026 5.19294C9.53284 5.49019 9.7404 5.71748 10.0327 5.71748C10.3176 5.71748 10.512 5.52481 10.521 5.23245C10.5631 4.41483 11.1442 3.85186 11.951 3.84443C12.4266 3.84443 12.8545 4.09583 13.0201 4.4915C13.0958 4.6307 13.2425 4.63722 13.4461 4.58611C13.5532 4.54986 13.68 4.54243 13.802 4.54243C14.6212 4.54243 15.2616 5.18115 15.2616 6.01944C15.2616 8.08391 12.2397 7.77845 12.2397 10.0017C12.2397 11.0306 13.0529 11.7507 14.2096 11.7507C14.2798 11.7507 14.3499 11.7507 14.4349 11.7507C14.5972 12.6555 15.192 13.2768 15.9286 13.2768C16.998 13.2768 17.7592 12.0861 17.7592 10.4045C17.7592 9.72655 17.7139 9.28993 17.6744 8.8714L16.6698 9.15142C16.715 9.55928 16.7678 9.91594 16.7678 10.3863C16.7678 11.4912 16.3837 12.2838 15.9286 12.2838C15.532 12.2838 15.2625 11.7794 15.2625 11.0541C15.2625 10.919 15.167 10.8458 15.0377 10.8458C14.9107 10.8458 14.763 10.8532 14.6379 10.8532C13.7204 10.8532 13.2564 10.5516 13.2564 9.98121C13.2564 8.4248 16.2604 8.8161 16.2604 6.01944C16.2604 4.61711 15.229 3.54193 13.8975 3.54193C13.806 3.54193 13.6996 3.55099 13.5899 3.57329C13.1912 3.12578 12.5905 2.86206 11.951 2.86206C10.5925 2.86206 9.58488 3.81453 9.54026 5.19294ZM14.9557 9.7001C14.9557 9.96853 15.1574 10.176 15.4349 10.2032C17.0761 10.3078 18.1933 9.32488 18.1933 7.77102C18.1933 6.44374 17.222 5.43944 15.7934 5.30676L15.6386 6.31379C16.5747 6.25542 17.2035 6.84721 17.2035 7.77102C17.2035 8.71549 16.5137 9.29665 15.4563 9.21344C15.1936 9.19365 14.9557 9.43005 14.9557 9.7001ZM12.7602 10.1628C12.4825 10.2765 12.1298 10.3415 11.7994 10.3415C11.0446 10.3415 10.327 10.0247 10.108 9.58263L9.23464 10.2727C9.75865 10.9381 10.6802 11.3313 11.7138 11.3313C12.1677 11.3313 12.6512 11.2556 13.0895 11.1073L12.7602 10.1628ZM11.0426 7.01287L11.3687 7.96807C12.6061 7.76453 13.27 7.02139 13.2618 5.80121C13.2586 5.54021 13.0206 5.30549 12.7522 5.30549C12.4854 5.30549 12.2639 5.53278 12.2688 5.80864C12.2786 6.58331 11.9012 6.93039 11.0426 7.01287Z" fill="#332D17"/>
</svg>
