<svg width="41" height="41" viewBox="0 0 41 41" fill="none" xmlns="http://www.w3.org/2000/svg">
<path d="M13.2165 29.8134H27.7839C29.6271 29.8134 30.5747 28.8674 30.5747 27.0506V22.0511C30.5747 21.1605 30.4933 20.6782 30.0637 20.1683L27.5753 17.097C26.4454 15.7205 26.0258 15.3937 24.4656 15.3937H22.8625V16.7923H24.5171C25.1137 16.7923 25.4851 16.9059 25.9693 17.5016L28.6079 20.775C28.9185 21.1614 28.7954 21.3285 28.3613 21.3285H23.0202C22.5717 21.3285 22.3737 21.6473 22.3737 21.9824V22.0133C22.3737 22.9389 21.6531 23.9232 20.5002 23.9232C19.3543 23.9232 18.6337 22.9389 18.6337 22.0133V21.9824C18.6337 21.6473 18.4287 21.3285 17.9802 21.3285H12.6531C12.198 21.3285 12.1029 21.139 12.3979 20.775L15.0171 17.5225C15.5153 16.9129 15.8867 16.7923 16.4833 16.7923H18.1449V15.3937H16.5348C14.9746 15.3937 14.569 15.7136 13.4181 17.1179L10.9367 20.1683C10.5195 20.6712 10.4258 21.1605 10.4258 22.0511V27.0506C10.4258 28.8674 11.3803 29.8134 13.2165 29.8134ZM13.2917 28.1467C12.5007 28.1467 12.0711 27.7317 12.0711 26.9052V22.8057H17.1921C17.456 24.3307 18.7809 25.4572 20.5002 25.4572C22.2195 25.4572 23.5444 24.3237 23.8083 22.8057H28.9294V26.9052C28.9294 27.7317 28.4928 28.1467 27.7087 28.1467H13.2917Z" fill="black"/>
<path d="M20.5018 22.1326C20.9335 22.1326 21.2926 21.7743 21.2926 21.3588V13.1272L21.2223 11.8672L21.7534 12.4842L22.9446 13.7613C23.0805 13.9127 23.2776 13.993 23.4752 13.993C23.8593 13.993 24.1735 13.7072 24.1735 13.3164C24.1735 13.1063 24.0963 12.9548 23.9549 12.8119L21.0978 10.06C20.8955 9.86074 20.7126 9.78894 20.5018 9.78894C20.298 9.78894 20.1081 9.86074 19.9058 10.06L17.0487 12.8119C16.9058 12.9548 16.8301 13.1063 16.8301 13.3164C16.8301 13.7072 17.1374 13.993 17.5198 13.993C17.7191 13.993 17.9161 13.9127 18.0591 13.7613L19.2502 12.4842L19.7812 11.8603L19.7179 13.1272V21.3588C19.7179 21.7743 20.0702 22.1326 20.5018 22.1326Z" fill="black"/>
<rect x="0.5" y="1.28894" width="40" height="39" rx="15.5" stroke="#332D17"/>
</svg>
