<svg width="40" height="41" viewBox="0 0 40 41" fill="none" xmlns="http://www.w3.org/2000/svg">
<rect y="0.78894" width="40" height="40" rx="16" fill="#24ABEB"/>
<path d="M12.7165 29.8134H27.2839C29.1271 29.8134 30.0747 28.8674 30.0747 27.0506V22.0511C30.0747 21.1605 29.9933 20.6782 29.5637 20.1683L27.0753 17.097C25.9454 15.7205 25.5258 15.3937 23.9656 15.3937H22.3625V16.7923H24.0171C24.6137 16.7923 24.9851 16.9059 25.4693 17.5016L28.1079 20.775C28.4185 21.1614 28.2954 21.3285 27.8613 21.3285H22.5202C22.0717 21.3285 21.8737 21.6473 21.8737 21.9824V22.0133C21.8737 22.9389 21.1531 23.9232 20.0002 23.9232C18.8543 23.9232 18.1337 22.9389 18.1337 22.0133V21.9824C18.1337 21.6473 17.9287 21.3285 17.4802 21.3285H12.1531C11.698 21.3285 11.6029 21.139 11.8979 20.775L14.5171 17.5225C15.0153 16.9129 15.3867 16.7923 15.9833 16.7923H17.6449V15.3937H16.0348C14.4746 15.3937 14.069 15.7136 12.9181 17.1179L10.4367 20.1683C10.0195 20.6712 9.92578 21.1605 9.92578 22.0511V27.0506C9.92578 28.8674 10.8803 29.8134 12.7165 29.8134ZM12.7917 28.1467C12.0007 28.1467 11.5711 27.7317 11.5711 26.9052V22.8057H16.6921C16.956 24.3307 18.2809 25.4572 20.0002 25.4572C21.7195 25.4572 23.0444 24.3237 23.3083 22.8057H28.4294V26.9052C28.4294 27.7317 27.9928 28.1467 27.2087 28.1467H12.7917Z" fill="white"/>
<path d="M20.0018 22.1326C20.4335 22.1326 20.7926 21.7743 20.7926 21.3588V13.1272L20.7223 11.8672L21.2534 12.4842L22.4446 13.7613C22.5805 13.9127 22.7776 13.993 22.9752 13.993C23.3593 13.993 23.6735 13.7072 23.6735 13.3164C23.6735 13.1063 23.5963 12.9548 23.4549 12.8119L20.5978 10.06C20.3955 9.86074 20.2126 9.78894 20.0018 9.78894C19.798 9.78894 19.6081 9.86074 19.4058 10.06L16.5487 12.8119C16.4058 12.9548 16.3301 13.1063 16.3301 13.3164C16.3301 13.7072 16.6374 13.993 17.0198 13.993C17.2191 13.993 17.4161 13.9127 17.5591 13.7613L18.7502 12.4842L19.2812 11.8603L19.2179 13.1272V21.3588C19.2179 21.7743 19.5702 22.1326 20.0018 22.1326Z" fill="white"/>
</svg>
