<svg width="40" height="41" viewBox="0 0 40 41" fill="none" xmlns="http://www.w3.org/2000/svg">
<rect y="0.78894" width="40" height="40" rx="16" fill="#0047FC" fill-opacity="0.8"/>
<path d="M20.4047 16.8297L19.0039 18.2423C20.11 18.3454 20.8931 18.6985 21.4544 19.2597C23.0234 20.8271 23.0175 23.0378 21.4669 24.5884L18.4015 27.6446C16.8417 29.2028 14.6477 29.2087 13.082 27.6489C11.513 26.0739 11.5189 23.88 13.077 22.3202L14.6605 20.7383C14.3657 20.0727 14.2696 19.2483 14.4325 18.5376L11.7826 21.1733C9.52047 23.4347 9.51199 26.6499 11.7919 28.9298C14.081 31.2206 17.2912 31.2054 19.5483 28.9483L22.7554 25.7352C25.0201 23.4705 25.0337 20.2587 22.7445 17.9788C22.205 17.4376 21.4755 17.026 20.4047 16.8297ZM19.5932 24.6013L20.994 23.1887C19.8879 23.0931 19.1048 22.7342 18.5435 22.1729C16.9761 20.6039 16.9804 18.3949 18.5326 16.8443L21.5904 13.7881C23.1562 12.2283 25.3502 12.2224 26.9175 13.7897C28.4849 15.3571 28.4714 17.5603 26.9208 19.1109L25.3391 20.6927C25.6321 21.3675 25.7207 22.1828 25.5671 22.8951L28.2169 20.2578C30.4774 17.9963 30.4875 14.7887 28.2077 12.5012C25.9169 10.2121 22.7067 10.2273 20.442 12.492L17.2441 15.6958C14.9794 17.9605 14.9659 21.1723 17.2534 23.4522C17.7945 23.9934 18.5223 24.4051 19.5932 24.6013Z" fill="white"/>
</svg>
