<svg width="28" height="27" viewBox="0 0 28 27" fill="none" xmlns="http://www.w3.org/2000/svg">
<path d="M27.334 10.3933C27.2498 10.1494 27.0966 9.93518 26.8931 9.77662C26.6895 9.61805 26.4444 9.52194 26.1873 9.49995L18.6006 8.39328L15.2006 1.49995C15.0914 1.27452 14.921 1.08441 14.7087 0.951381C14.4965 0.818356 14.2511 0.747803 14.0006 0.747803C13.7501 0.747803 13.5047 0.818356 13.2925 0.951381C13.0803 1.08441 12.9098 1.27452 12.8006 1.49995L9.40062 8.37995L1.81395 9.49995C1.56718 9.53502 1.33519 9.63857 1.14429 9.79883C0.953389 9.95909 0.811234 10.1696 0.733954 10.4066C0.663214 10.6382 0.656866 10.8846 0.715591 11.1195C0.774316 11.3544 0.895898 11.5689 1.06729 11.7399L6.57396 17.0733L5.24062 24.6466C5.19302 24.8966 5.21795 25.155 5.31245 25.3912C5.40696 25.6275 5.56709 25.8318 5.77395 25.9799C5.97558 26.1241 6.21339 26.2092 6.46069 26.2257C6.70798 26.2422 6.95498 26.1894 7.17396 26.0733L14.0006 22.5133L20.8006 26.0866C20.9878 26.1922 21.1991 26.2473 21.414 26.2466C21.6964 26.2476 21.9719 26.1589 22.2006 25.9933C22.4075 25.8451 22.5676 25.6408 22.6621 25.4046C22.7566 25.1683 22.7816 24.9099 22.734 24.6599L21.4006 17.0866L26.9073 11.7533C27.0998 11.5902 27.2421 11.3758 27.3176 11.1351C27.3931 10.8943 27.3988 10.6371 27.334 10.3933Z" fill="#FFCC01"/>
</svg>
