<svg width="20" height="21" viewBox="0 0 20 21" fill="none" xmlns="http://www.w3.org/2000/svg">
<path d="M18.3332 8.55845C18.2806 8.40603 18.1849 8.27214 18.0577 8.17304C17.9305 8.07393 17.7772 8.01387 17.6166 8.00012L12.8749 7.30845L10.7499 3.00012C10.6817 2.85923 10.5751 2.74041 10.4425 2.65727C10.3098 2.57413 10.1564 2.53003 9.9999 2.53003C9.84335 2.53003 9.68997 2.57413 9.55733 2.65727C9.42468 2.74041 9.31814 2.85923 9.2499 3.00012L7.1249 7.30012L2.38323 8.00012C2.229 8.02204 2.084 8.08676 1.96469 8.18692C1.84538 8.28708 1.75653 8.41868 1.70823 8.56679C1.66402 8.71152 1.66005 8.86555 1.69676 9.01236C1.73346 9.15918 1.80945 9.29322 1.91657 9.40012L5.35823 12.7335L4.5249 17.4668C4.49515 17.623 4.51073 17.7845 4.56979 17.9322C4.62886 18.0798 4.72894 18.2075 4.85823 18.3001C4.98425 18.3902 5.13288 18.4434 5.28744 18.4537C5.442 18.464 5.59638 18.431 5.73323 18.3585L9.9999 16.1335L14.2499 18.3668C14.3669 18.4328 14.4989 18.4672 14.6332 18.4668C14.8098 18.4674 14.9819 18.412 15.1249 18.3085C15.2542 18.2158 15.3543 18.0882 15.4133 17.9405C15.4724 17.7928 15.488 17.6314 15.4582 17.4751L14.6249 12.7418L18.0666 9.40845C18.1869 9.30652 18.2758 9.17254 18.323 9.02208C18.3702 8.87162 18.3738 8.71085 18.3332 8.55845Z" fill="#FFCC01"/>
</svg>
