<svg width="50" height="27" viewBox="0 0 50 27" fill="none" xmlns="http://www.w3.org/2000/svg">
<path d="M20.9 8.2L16.47 18.8H13.57L11.37 10.33C11.24 9.81 11.12 9.62 10.72 9.4C10.05 9.05 8.96 8.7 8 8.5L8.07 8.18H12.74C13.34 8.18 13.87 8.58 14.01 9.27L15.16 15.41L18.02 8.18H20.91L20.9 8.2ZM32.29 15.35C32.29 12.55 28.41 12.39 28.44 11.14C28.44 10.76 28.81 10.35 29.6 10.24C30.53 10.1537 31.4662 10.3195 32.31 10.72L32.79 8.47C31.968 8.16215 31.0978 8.003 30.22 8C27.51 8 25.6 9.44 25.58 11.51C25.56 13.04 26.94 13.89 27.98 14.41C29.06 14.92 29.42 15.26 29.41 15.72C29.41 16.43 28.56 16.75 27.77 16.76C26.38 16.78 25.58 16.39 24.95 16.09L24.45 18.42C25.09 18.71 26.27 18.97 27.5 18.98C30.39 18.98 32.28 17.56 32.29 15.35ZM39.46 18.81H42L39.78 8.2H37.44C36.91 8.2 36.46 8.5 36.27 8.98L32.15 18.82H35.03L35.6 17.24H39.13L39.46 18.82V18.81ZM36.39 15.05L37.84 11.06L38.67 15.06H36.4L36.39 15.05ZM24.83 8.2L22.56 18.82H19.82L22.09 8.2H24.83Z" fill="#1434CB"/>
<rect x="0.5" y="0.5" width="49" height="25.98" rx="3.5" stroke="#313131" stroke-opacity="0.2"/>
</svg>
