<svg width="40" height="41" viewBox="0 0 40 41" fill="none" xmlns="http://www.w3.org/2000/svg">
<rect y="0.78894" width="40" height="40" rx="16" fill="#60D669"/>
<g clip-path="url(#clip0_1137_2283)">
<path d="M10.5017 20.6692C10.5013 22.3496 10.9403 23.9904 11.7752 25.4366L10.4219 30.3778L15.4786 29.0519C16.8772 29.8133 18.4443 30.2123 20.0368 30.2124H20.0409C25.2979 30.2124 29.5772 25.9347 29.5795 20.6767C29.5805 18.1289 28.5892 15.7331 26.7881 13.9306C24.9873 12.1283 22.5923 11.1352 20.0406 11.134C14.783 11.134 10.504 15.4116 10.5018 20.6692" fill="url(#paint0_linear_1137_2283)"/>
<path d="M10.1611 20.6662C10.1605 22.407 10.6153 24.1065 11.48 25.6044L10.0781 30.7228L15.3162 29.3494C16.7594 30.1363 18.3844 30.5512 20.0379 30.5518H20.0422C25.4877 30.5518 29.9208 26.1202 29.9231 20.6741C29.924 18.0347 28.897 15.5527 27.0316 13.6857C25.166 11.8189 22.6853 10.79 20.0422 10.7889C14.5956 10.7889 10.1632 15.2199 10.1611 20.6662ZM13.2805 25.3465L13.0849 25.036C12.2627 23.7287 11.8287 22.218 11.8294 20.6668C11.8311 16.14 15.5152 12.4572 20.0453 12.4572C22.2391 12.4581 24.3008 13.3133 25.8515 14.8649C27.4021 16.4167 28.2553 18.4795 28.2548 20.6734C28.2528 25.2002 24.5687 28.8835 20.0422 28.8835H20.0389C18.565 28.8827 17.1195 28.4869 15.8589 27.7389L15.5589 27.561L12.4505 28.376L13.2805 25.3464V25.3465Z" fill="url(#paint1_linear_1137_2283)"/>
<path d="M17.5726 16.5368C17.3877 16.1257 17.193 16.1174 17.0171 16.1102C16.8731 16.104 16.7085 16.1045 16.544 16.1045C16.3793 16.1045 16.1118 16.1664 15.8857 16.4133C15.6593 16.6605 15.0215 17.2577 15.0215 18.4723C15.0215 19.6871 15.9062 20.8609 16.0295 21.0258C16.153 21.1904 17.7375 23.7628 20.247 24.7524C22.3326 25.5748 22.757 25.4112 23.2096 25.37C23.6623 25.3289 24.6704 24.7729 24.8761 24.1964C25.0819 23.62 25.0819 23.1259 25.0202 23.0226C24.9585 22.9198 24.7938 22.858 24.5469 22.7346C24.2999 22.6111 23.0861 22.0138 22.8599 21.9314C22.6335 21.8491 22.4689 21.808 22.3043 22.0552C22.1396 22.302 21.6668 22.858 21.5227 23.0226C21.3788 23.1877 21.2347 23.2082 20.9878 23.0847C20.7408 22.9609 19.9457 22.7005 19.0023 21.8595C18.2684 21.205 17.7729 20.3969 17.6288 20.1497C17.4848 19.9029 17.6134 19.7691 17.7372 19.6461C17.8482 19.5354 17.9842 19.3578 18.1078 19.2136C18.2309 19.0695 18.2719 18.9666 18.3543 18.8019C18.4367 18.6371 18.3954 18.4929 18.3338 18.3695C18.2719 18.246 17.7922 17.025 17.5726 16.5368Z" fill="white"/>
</g>
<defs>
<linearGradient id="paint0_linear_1137_2283" x1="968.302" y1="1935.51" x2="968.302" y2="11.134" gradientUnits="userSpaceOnUse">
<stop stop-color="#1FAF38"/>
<stop offset="1" stop-color="#60D669"/>
</linearGradient>
<linearGradient id="paint1_linear_1137_2283" x1="1002.33" y1="2004.18" x2="1002.33" y2="10.7889" gradientUnits="userSpaceOnUse">
<stop stop-color="#F9F9F9"/>
<stop offset="1" stop-color="white"/>
</linearGradient>
<clipPath id="clip0_1137_2283">
<rect width="19.845" height="20" fill="white" transform="translate(10.0781 10.7889)"/>
</clipPath>
</defs>
</svg>
